HIERARCHY
ROOT Hips
{
	OFFSET 0.00 0.00 0.00
	CHANNELS 6 Xposition Yposition Zposition Xrotation Yrotation Zrotation
	JOINT LeftUpLeg
	{
		OFFSET 3.64953 0.00000 0.00000
		CHANNELS 3 Xrotation Yrotation Zrotation
		JOINT LeftLeg
		{
			OFFSET 0.00000 -15.70580 0.00000
			CHANNELS 3 Xrotation Yrotation Zrotation
			JOINT LeftFoot
			{
				OFFSET 0.00000 -15.41867 0.00000
				CHANNELS 3 Xrotation Yrotation Zrotation
				JOINT LeftToeBase
				{
					OFFSET 0.00000 -1.53543 5.73033
					CHANNELS 3 Xrotation Yrotation Zrotation
					End Site
					{
						OFFSET 0.00000 0.00000 2.95275
					}
				}
			}
		}
	}
	JOINT RightUpLeg
	{
		OFFSET -3.64953 0.00000 0.00000
		CHANNELS 3 Xrotation Yrotation Zrotation
		JOINT RightLeg
		{
			OFFSET 0.00000 -15.70580 0.00000
			CHANNELS 3 Xrotation Yrotation Zrotation
			JOINT RightFoot
			{
				OFFSET 0.00000 -15.41867 0.00000
				CHANNELS 3 Xrotation Yrotation Zrotation
				JOINT RightToeBase
				{
					OFFSET 0.00000 -1.53543 5.73033
					CHANNELS 3 Xrotation Yrotation Zrotation
					End Site
					{
						OFFSET 0.00000 0.00000 2.95275
					}
				}
			}
		}
	}
	JOINT Spine
	{
		OFFSET 0.00000 0.03937 0.00000
		CHANNELS 3 Xrotation Yrotation Zrotation
		JOINT Spine1
		{
			OFFSET 0.00000 10.24829 0.00000
			CHANNELS 3 Xrotation Yrotation Zrotation
			JOINT Neck
			{
				OFFSET 0.00000 7.82687 0.00000
				CHANNELS 3 Xrotation Yrotation Zrotation
				JOINT Head
				{
					OFFSET 0.00000 6.90715 0.00000
					CHANNELS 3 Xrotation Yrotation Zrotation
					End Site
					{
						OFFSET 0.00000 4.52755 0.00000
					}
				}
			}
			JOINT LeftShoulder
			{
				OFFSET 0.00000 7.82687 0.00000
				CHANNELS 3 Xrotation Yrotation Zrotation
				JOINT LeftArm
				{
					OFFSET 6.71018 -0.00002 0.00000
					CHANNELS 3 Xrotation Yrotation Zrotation
					JOINT LeftForeArm
					{
						OFFSET 10.94419 -0.00004 0.00000
						CHANNELS 3 Xrotation Yrotation Zrotation
						JOINT LeftHand
						{
							OFFSET 8.52010 -0.00003 0.00000
							CHANNELS 3 Xrotation Yrotation Zrotation
							JOINT LeftHandThumb
							{
								OFFSET 0.00000 0.00000 0.00000
								CHANNELS 3 Xrotation Yrotation Zrotation
								End Site
								{
									OFFSET 0.00000 0.00000 3.93700
								}
							}
							JOINT L_Wrist_End
							{
								OFFSET 3.93700 -0.00001 0.00000
								CHANNELS 3 Xrotation Yrotation Zrotation
							}
						}
					}
				}
			}
			JOINT RightShoulder
			{
				OFFSET 0.00000 7.82687 0.00000
				CHANNELS 3 Xrotation Yrotation Zrotation
				JOINT RightArm
				{
					OFFSET -6.71018 -0.00002 0.00000
					CHANNELS 3 Xrotation Yrotation Zrotation
					JOINT RightForeArm
					{
						OFFSET -10.94419 -0.00004 0.00000
						CHANNELS 3 Xrotation Yrotation Zrotation
						JOINT RightHand
						{
							OFFSET -8.52010 -0.00003 0.00000
							CHANNELS 3 Xrotation Yrotation Zrotation
							JOINT RightHandThumb
							{
								OFFSET 0.00000 0.00000 0.00000
								CHANNELS 3 Xrotation Yrotation Zrotation
								End Site
								{
									OFFSET 0.00000 0.00000 3.93700
								}
							}
							JOINT R_Wrist_End
							{
								OFFSET -5.39369 -0.00002 0.00000
								CHANNELS 3 Xrotation Yrotation Zrotation
							}
						}
					}
				}
			}
		}
	}
}
MOTION
Frames: 9
Frame Time: 0.008333
 -2.4565 32.2413 57.1783 9.3589 -5.4095 1.3020 -21.8752 -3.3064 4.3082 22.9336 -0.0000 0.0000 -10.9793 -0.2204 -9.4642 -10.4470 0.0000 -0.0000 -22.2401 -2.8512 -1.4583 25.0479 -0.0000 0.0000 -21.3846 0.6236 -8.1961 10.0843 -0.0000 0.0000 0.7902 2.6139 -0.7890 14.0941 -0.4048 -1.5302 3.9993 1.0633 -5.0683 3.9707 -2.6816 6.9233 19.2918 8.9630 -2.7555 -30.0359 -48.4442 -68.9391 -0.0001 -32.5391 -0.0000 -6.4019 -4.7085 -3.9242 0.0000 0.0000 -0.0000 0.0000 0.0000 -0.0000 10.8027 -15.5766 -0.5684 -25.9338 35.0023 77.8404 -0.0005 68.4790 0.0004 -30.2993 1.3037 4.3847 -0.0000 -0.0000 0.0000 -0.0000 -0.0000 0.0000
 -2.4238 32.2494 57.1816 9.4900 -5.2773 1.5934 -21.8949 -3.2723 3.9222 22.6322 -0.0000 0.0000 -10.7313 -0.1024 -9.1332 -10.5082 -0.0000 0.0000 -22.3839 -3.0240 -1.8565 25.0791 0.0000 0.0000 -21.4612 0.7756 -8.1121 9.9042 -0.0000 0.0000 0.6794 2.6209 -0.8462 14.3109 -0.4363 -1.6383 3.8898 1.1463 -4.9660 4.2172 -2.7416 6.8195 19.1874 8.9239 -2.6826 -30.2630 -48.0071 -69.4457 -0.0001 -31.6135 -0.0000 -6.3453 -4.8468 -3.3377 0.0000 0.0000 -0.0000 0.0000 0.0000 -0.0000 10.7087 -15.5616 -0.4552 -25.9465 34.6654 77.7498 -0.0005 67.2711 0.0003 -30.1910 1.4964 4.2046 0.0000 -0.0000 -0.0000 0.0000 -0.0000 -0.0000
 -2.4145 32.2547 57.1864 9.5482 -5.2434 1.6204 -21.8238 -3.1502 3.8856 22.3759 -0.0000 0.0000 -10.7368 -0.1154 -9.1023 -10.3268 0.0000 0.0000 -22.3760 -3.0850 -1.9137 24.9772 -0.0000 0.0000 -21.4559 0.8345 -8.1852 9.8802 0.0000 0.0000 0.7080 2.6461 -0.7843 14.3096 -0.3970 -1.5991 3.9452 1.1855 -5.0115 4.4258 -2.7021 6.9046 19.3551 8.9697 -2.8043 -30.4938 -47.8395 -69.8026 -0.0001 -30.5557 -0.0000 -6.5814 -5.2018 -2.4987 -0.0000 0.0000 0.0000 -0.0000 0.0000 0.0000 10.8080 -15.5538 -0.3489 -25.9757 34.4176 77.6489 -0.0005 65.9499 0.0003 -30.1033 1.6983 3.8726 0.0000 -0.0000 -0.0000 0.0000 -0.0000 -0.0000
 -2.4042 32.2543 57.1893 9.6024 -5.1527 1.6573 -21.7593 -3.0659 3.8313 22.1005 -0.0000 0.0000 -10.7102 -0.2162 -9.0939 -10.1629 0.0000 -0.0000 -22.3893 -3.2290 -2.0120 24.9274 -0.0000 0.0000 -21.4744 0.9115 -8.1906 9.7472 -0.0000 -0.0000 0.7418 2.6538 -0.7322 14.3077 -0.3746 -1.5554 3.9807 1.1939 -4.9959 4.6742 -2.7034 6.8676 19.4085 9.0597 -2.8572 -30.6241 -47.7247 -70.2255 -0.0001 -29.5027 -0.0000 -6.8901 -5.4796 -1.8675 -0.0000 0.0000 -0.0000 -0.0000 0.0000 -0.0000 10.8649 -15.5876 -0.2590 -25.8803 34.1848 77.5120 -0.0004 64.5827 0.0003 -29.9665 1.8016 3.5928 0.0000 -0.0000 -0.0000 0.0000 -0.0000 -0.0000
 -2.3996 32.2495 57.1829 9.6619 -5.0212 1.7448 -21.7699 -3.0909 3.7034 21.9339 -0.0000 0.0000 -10.6764 -0.2758 -8.8986 -10.2065 0.0000 -0.0000 -22.4458 -3.4903 -2.1793 24.9000 -0.0000 0.0000 -21.6016 1.0363 -7.9421 9.9673 -0.0000 -0.0000 0.7875 2.6339 -0.7329 14.3178 -0.3870 -1.5294 4.0039 1.2188 -4.9784 4.8765 -2.7048 6.8900 19.3017 9.1949 -2.7521 -30.7170 -47.5601 -70.8305 -0.0001 -28.3704 -0.0000 -6.9443 -5.8173 -1.3659 -0.0000 -0.0000 0.0000 -0.0000 -0.0000 0.0000 10.8427 -15.6134 -0.1950 -25.6651 33.9526 77.3851 -0.0004 63.1798 0.0003 -29.8915 1.8868 3.2350 0.0000 -0.0000 -0.0000 0.0000 -0.0000 -0.0000
 -2.3923 32.2442 57.1855 9.7098 -4.9801 1.7878 -21.6553 -3.1926 3.6395 21.6227 -0.0000 0.0000 -10.7046 -0.2376 -9.0208 -10.0066 0.0000 -0.0000 -22.5067 -3.4796 -2.2449 24.9507 -0.0000 0.0000 -21.6686 0.9759 -7.8835 9.9028 -0.0000 0.0000 0.7872 2.6500 -0.6764 14.3300 -0.3575 -1.4891 4.0948 1.2147 -5.0010 5.1419 -2.7044 6.8682 19.5040 9.2380 -2.8492 -30.7551 -47.4761 -71.0830 -0.0001 -27.4049 -0.0000 -7.0406 -5.8443 -0.8511 -0.0000 -0.0000 -0.0000 -0.0000 -0.0000 -0.0000 11.0896 -15.5843 -0.0996 -25.5763 33.7104 77.1614 -0.0004 61.6848 0.0002 -29.7143 1.8746 3.2377 0.0000 0.0000 0.0000 0.0000 0.0000 0.0000
 -2.3918 32.2398 57.1978 9.7572 -4.9133 1.8267 -21.5550 -3.4934 3.5648 21.3920 -0.0000 0.0000 -10.7456 -0.0957 -9.1310 -9.9091 0.0000 -0.0000 -22.5099 -3.5872 -2.3197 24.9089 -0.0000 0.0000 -21.7765 0.9948 -7.6763 10.0195 -0.0000 0.0000 0.7508 2.6683 -0.6393 14.3685 -0.3260 -1.4463 4.1863 1.2125 -5.0383 5.4439 -2.6972 6.9578 19.5878 9.3165 -2.9135 -30.5687 -47.5361 -71.2549 -0.0001 -26.4391 -0.0000 -7.1605 -5.8565 -0.5595 -0.0000 0.0000 -0.0000 -0.0000 0.0000 -0.0000 11.2680 -15.5426 0.0354 -25.2894 33.5654 76.8623 -0.0004 60.1812 0.0002 -29.6821 1.9232 2.7822 0.0000 -0.0000 0.0000 0.0000 -0.0000 0.0000
 -2.3900 32.2340 57.1944 9.8221 -4.8057 1.8447 -21.4435 -3.2730 3.5829 20.9655 -0.0000 0.0000 -10.7295 -0.4241 -9.1175 -9.8816 0.0000 -0.0000 -22.5801 -3.7132 -2.3759 24.9105 -0.0000 0.0000 -21.8244 0.9605 -7.5156 10.0318 -0.0000 0.0000 0.7278 2.6759 -0.6010 14.4304 -0.3001 -1.3863 4.2135 1.2250 -5.0131 5.7567 -2.7068 6.9685 19.6191 9.4330 -2.9435 -30.2934 -47.6091 -71.4129 -0.0001 -25.7357 -0.0000 -7.2186 -5.3327 -0.3175 -0.0000 0.0000 0.0000 -0.0000 0.0000 0.0000 11.3999 -15.5051 0.1696 -24.9193 33.4275 76.4868 -0.0003 58.6670 0.0002 -29.6937 1.9123 2.6480 -0.0000 0.0000 -0.0000 -0.0000 0.0000 -0.0000
 -2.3845 32.2297 57.1954 9.8881 -4.7238 1.8511 -21.3401 -3.2372 3.5765 20.6025 -0.0000 0.0000 -10.7263 -0.5210 -9.1785 -9.7918 0.0000 0.0000 -22.6218 -3.7866 -2.4091 24.8679 0.0000 0.0000 -21.8451 0.9511 -7.5408 10.0277 0.0000 0.0000 0.6956 2.6898 -0.5572 14.4819 -0.2659 -1.3210 4.2318 1.2510 -5.0073 6.1441 -2.7176 7.0060 19.6937 9.5318 -2.9843 -30.0724 -47.6213 -71.6587 -0.0001 -24.6852 -0.0000 -7.0967 -5.6723 -0.0548 0.0000 0.0000 -0.0000 0.0000 0.0000 -0.0000 11.5252 -15.4682 0.3111 -24.4722 33.3617 76.0593 -0.0003 57.0648 0.0002 -29.5267 1.8076 2.5749 -0.0000 -0.0000 -0.0000 -0.0000 -0.0000 -0.0000
